<svg xmlns="http://www.w3.org/2000/svg" version="1.1" xmlns:xlink="http://www.w3.org/1999/xlink" viewBox="0 0 200 200"><rect width="200" height="200" fill="url('#gradient')"></rect><defs><linearGradient id="gradient" gradientTransform="rotate(360 0.5 0.5)"><stop offset="0%" stop-color="#dee90b"></stop><stop offset="100%" stop-color="#84e342"></stop></linearGradient></defs><g><g fill="#1b3855" transform="matrix(2.8919526267840876,0,0,2.8919526267840876,7.082656142371704,115.5165345428564)" stroke="#0e5278" stroke-width="0"><path d="M9.98 0L9.15-2.66L4.45-2.66L3.63 0L-0.03 0L5.19-14.22L8.41-14.22L13.66 0L9.98 0ZM6.80-10.23L5.27-5.30L8.33-5.30L6.80-10.23ZM18.02-15L18.02 0L14.72 0L14.72-15L18.02-15ZM22.60-10.57L24.27-4.61L26.03-10.57L29.55-10.57L25.24 1.77L25.06 2.22Q24.14 4.27 21.82 4.27L21.82 4.27Q21.17 4.27 20.46 4.07L20.46 4.07L20.46 1.72L20.89 1.72Q21.58 1.72 21.95 1.52Q22.31 1.32 22.49 0.80L22.49 0.80L22.75 0.10L19.08-10.57L22.60-10.57ZM39.50 0L36.21 0Q36.04-0.32 35.90-0.95L35.90-0.95Q34.99 0.20 33.36 0.20L33.36 0.20Q31.87 0.20 30.82-0.71Q29.78-1.61 29.78-2.98L29.78-2.98Q29.78-4.70 31.04-5.58Q32.31-6.46 34.74-6.46L34.74-6.46L35.75-6.46L35.75-7.01Q35.75-8.47 34.49-8.47L34.49-8.47Q33.32-8.47 33.32-7.31L33.32-7.31L30.03-7.31Q30.03-8.85 31.33-9.80Q32.64-10.76 34.66-10.76Q36.68-10.76 37.85-9.78Q39.02-8.79 39.05-7.07L39.05-7.07L39.05-2.39Q39.07-0.94 39.50-0.17L39.50-0.17L39.50 0ZM34.15-2.15L34.15-2.15Q34.77-2.15 35.17-2.41Q35.58-2.68 35.75-3.01L35.75-3.01L35.75-4.70L34.79-4.70Q33.08-4.70 33.08-3.15L33.08-3.15Q33.08-2.71 33.38-2.43Q33.68-2.15 34.15-2.15ZM52.67-7.60L52.67-1.76Q51.88-0.88 50.35-0.34Q48.83 0.20 47.01 0.20L47.01 0.20Q44.22 0.20 42.55-1.51Q40.88-3.22 40.76-6.27L40.76-6.27L40.75-7.50Q40.75-9.60 41.49-11.17Q42.24-12.73 43.62-13.58Q45-14.42 46.82-14.42L46.82-14.42Q49.47-14.42 50.94-13.21Q52.41-11.99 52.66-9.58L52.66-9.58L49.36-9.58Q49.18-10.77 48.59-11.28Q48.01-11.79 46.93-11.79L46.93-11.79Q45.64-11.79 44.94-10.69Q44.24-9.60 44.23-7.57L44.23-7.57L44.23-6.71Q44.23-4.58 44.96-3.51Q45.68-2.44 47.25-2.44L47.25-2.44Q48.58-2.44 49.24-3.04L49.24-3.04L49.24-5.24L46.86-5.24L46.86-7.60L52.67-7.60ZM54.10-4.82L54.09-5.38Q54.09-6.96 54.71-8.20Q55.32-9.43 56.47-10.10Q57.63-10.76 59.18-10.76L59.18-10.76Q61.55-10.76 62.92-9.29Q64.29-7.82 64.29-5.29L64.29-5.29L64.29-5.18Q64.29-2.71 62.92-1.25Q61.54 0.20 59.20 0.20L59.20 0.20Q56.94 0.20 55.58-1.16Q54.21-2.51 54.10-4.82L54.10-4.82ZM57.39-5.77L57.38-5.18Q57.38-3.71 57.84-3.03Q58.30-2.34 59.20-2.34L59.20-2.34Q60.96-2.34 61.00-5.05L61.00-5.05L61.00-5.38Q61.00-8.22 59.18-8.22L59.18-8.22Q57.53-8.22 57.39-5.77L57.39-5.77Z"></path></g></g></svg>